<svg xmlns="http://www.w3.org/2000/svg" xmlns:xlink="http://www.w3.org/1999/xlink" xmlns:lucid="lucid" width="1530" height="980"><g transform="translate(-260 -138.5)" lucid:page-tab-id="0_0"><path d="M700 164.5c0-3.3 2.7-6 6-6h208c3.3 0 6 2.7 6 6v68c0 3.3-2.7 6-6 6H706c-3.3 0-6-2.7-6-6z" stroke="#fff" stroke-width="3" fill="#0c7cba"/><use xlink:href="#a" transform="matrix(1,0,0,1,712,170.5) translate(64.46913580246915 35.444444444444436)"/><path d="M700 564.5c0-3.3 2.7-6 6-6h208c3.3 0 6 2.7 6 6v68c0 3.3-2.7 6-6 6H706c-3.3 0-6-2.7-6-6z" stroke="#fff" stroke-width="3" fill="#83bbe5"/><use xlink:href="#b" transform="matrix(1,0,0,1,712,570.5) translate(43.59876543209879 35.38888888888888)"/><path d="M700 764.5c0-3.3 2.7-6 6-6h208c3.3 0 6 2.7 6 6v68c0 3.3-2.7 6-6 6H706c-3.3 0-6-2.7-6-6z" stroke="#fff" stroke-width="3" fill="#b2d6ef"/><use xlink:href="#c" transform="matrix(1,0,0,1,712,770.5) translate(32.2777777777778 33.6111111111111)"/><path d="M810 756v-97.5" stroke="#5e5e5e" stroke-width="2" fill="none"/><path d="M811 757h-2v-1.03h2z" fill="#5e5e5e"/><path d="M810 643.24l4.64 14.26h-9.28z" stroke="#5e5e5e" stroke-width="2" fill="#5e5e5e"/><path d="M1020 764.5c0-3.3 2.7-6 6-6h208c3.3 0 6 2.7 6 6v68c0 3.3-2.7 6-6 6h-208c-3.3 0-6-2.7-6-6z" stroke="#fff" stroke-width="3" fill="#b2d6ef"/><use xlink:href="#d" transform="matrix(1,0,0,1,1032,770.5) translate(54.78703703703705 33.6111111111111)"/><path d="M1130 756v-37.5c0-11.05-8.95-20-20-20H830c-11.05 0-20-8.95-20-20v-20" stroke="#5e5e5e" stroke-width="2" fill="none"/><path d="M1131 757h-2v-1.03h2z" fill="#5e5e5e"/><path d="M810 643.24l4.64 14.26h-9.28z" stroke="#5e5e5e" stroke-width="2" fill="#5e5e5e"/><path d="M280 564.5c0-3.3 2.7-6 6-6h208c3.3 0 6 2.7 6 6v68c0 3.3-2.7 6-6 6H286c-3.3 0-6-2.7-6-6z" stroke="#fff" stroke-width="3" fill="#ccc"/><use xlink:href="#e" transform="matrix(1,0,0,1,292,570.5) translate(51.89814814814816 33.6111111111111)"/><path d="M502.5 598.5h119" stroke="#5e5e5e" stroke-width="2" fill="none"/><path d="M502.53 599.5h-1.03v-2h1.03z" fill="#5e5e5e"/><path d="M636.76 598.5l-14.26 4.64v-9.28z" stroke="#5e5e5e" stroke-width="2" fill="#5e5e5e"/><path d="M502.5 598.5c9.66 0 17.5 7.84 17.5 17.5v162.5c0 11.05 8.95 20 20 20h81.5" stroke="#5e5e5e" stroke-width="2" fill="none"/><path d="M502.53 599.5h-1.03v-2h1.03z" fill="#5e5e5e"/><path d="M636.76 798.5l-14.26 4.64v-9.28z" stroke="#5e5e5e" stroke-width="2" fill="#5e5e5e"/><path d="M700 364.5c0-3.3 2.7-6 6-6h208c3.3 0 6 2.7 6 6v68c0 3.3-2.7 6-6 6H706c-3.3 0-6-2.7-6-6z" stroke="#fff" stroke-width="3" fill="#4b97d2"/><use xlink:href="#f" transform="matrix(1,0,0,1,712,370.5) translate(42.49074074074076 33.66666666666666)"/><path d="M810 556v-97.5" stroke="#5e5e5e" stroke-width="2" fill="none"/><path d="M811 557h-2v-1.03h2z" fill="#5e5e5e"/><path d="M810 443.24l4.64 14.26h-9.28z" stroke="#5e5e5e" stroke-width="2" fill="#5e5e5e"/><path d="M810 356v-97.5" stroke="#5e5e5e" stroke-width="2" fill="none"/><path d="M811 357h-2v-1.03h2z" fill="#5e5e5e"/><path d="M810 243.24l4.64 14.26h-9.28z" stroke="#5e5e5e" stroke-width="2" fill="#5e5e5e"/><path d="M700 964.5c0-3.3 2.7-6 6-6h168c3.3 0 6 2.7 6 6v113c-30.06-19.87-48.78-19.87-60.12-19.87-18 0-41.94 19.87-59.94 19.87-11.16 0-30.06 0-59.94-19.87z" stroke="#fff" stroke-width="3" fill="#ccc"/><path d="M710 975c0-3.3 2.7-6 6-6h168c3.3 0 6 2.7 6 6v113c-30.06-19.87-48.78-19.87-60.12-19.87-18 0-41.94 19.87-59.94 19.87-11.16 0-30.06 0-59.94-19.87z" stroke="#fff" stroke-width="3" fill="#ccc"/><path d="M720 985.5c0-3.3 2.7-6 6-6h168c3.3 0 6 2.7 6 6v113c-30.06-19.87-48.78-19.87-60.12-19.87-18 0-41.94 19.87-59.94 19.87-11.16 0-30.06 0-59.94-19.87z" stroke="#fff" stroke-width="3" fill="#ccc"/><use xlink:href="#g" transform="matrix(1,0,0,1,725,984.5) translate(43.73456790123457 22.77777777777778)"/><use xlink:href="#h" transform="matrix(1,0,0,1,725,984.5) translate(79.53703703703704 22.77777777777778)"/><use xlink:href="#i" transform="matrix(1,0,0,1,725,984.5) translate(38.73456790123457 49.44444444444444)"/><use xlink:href="#j" transform="matrix(1,0,0,1,725,984.5) translate(30.092592592592602 76.11111111111111)"/><use xlink:href="#k" transform="matrix(1,0,0,1,725,984.5) translate(132.56172839506172 76.11111111111111)"/><path d="M760.14 841v97.5" stroke="#5e5e5e" stroke-width="2" fill="none"/><path d="M761.14 841.03h-2V840h2z" fill="#5e5e5e"/><path d="M760.14 953.76l-4.64-14.26h9.27z" stroke="#5e5e5e" stroke-width="2" fill="#5e5e5e"/><path d="M839.45 956v-97.5" stroke="#5e5e5e" stroke-width="2" fill="none"/><path d="M840.45 957h-2v-1.03h2z" fill="#5e5e5e"/><path d="M839.45 843.24l4.63 14.26h-9.27z" stroke="#5e5e5e" stroke-width="2" fill="#5e5e5e"/><path d="M1035 995.45c0-3.3 2.67-6.3 5.96-6.68l178.08-20.34c3.3-.38 5.96 2 5.96 5.32v118.75c0 3.3-2.7 6-6 6h-178c-3.3 0-6-2.7-6-6z" stroke="#fff" stroke-width="3" fill="#ccc"/><use xlink:href="#l" transform="matrix(1,0,0,1,1040,994.5416666666666) translate(17.31481481481481 39.43402777777778)"/><use xlink:href="#m" transform="matrix(1,0,0,1,1040,994.5416666666666) translate(96.2037037037037 39.43402777777778)"/><use xlink:href="#n" transform="matrix(1,0,0,1,1040,994.5416666666666) translate(32.654320987654316 66.10069444444446)"/><path d="M1130 976.1V858.5" stroke="#5e5e5e" stroke-width="2" fill="none"/><path d="M1131 976.98l-2 .23v-1.13h2z" fill="#5e5e5e"/><path d="M1130 843.24l4.64 14.26h-9.28z" stroke="#5e5e5e" stroke-width="2" fill="#5e5e5e"/><path d="M1020 564.5c0-3.3 2.7-6 6-6h208c3.3 0 6 2.7 6 6v68c0 3.3-2.7 6-6 6h-208c-3.3 0-6-2.7-6-6z" stroke="#fff" stroke-width="3" fill="#83bbe5"/><use xlink:href="#o" transform="matrix(1,0,0,1,1032,570.5) translate(9.117283950617306 35.38888888888888)"/><path d="M1130 756v-97.5" stroke="#5e5e5e" stroke-width="2" fill="none"/><path d="M1131 757h-2v-1.03h2z" fill="#5e5e5e"/><path d="M1130 643.24l4.64 14.26h-9.28z" stroke="#5e5e5e" stroke-width="2" fill="#5e5e5e"/><path d="M1130 556v-37.5c0-11.05-8.95-20-20-20H830c-11.05 0-20-8.95-20-20v-20" stroke="#5e5e5e" stroke-width="2" fill="none"/><path d="M1131 557h-2v-1.03h2z" fill="#5e5e5e"/><path d="M810 443.24l4.64 14.26h-9.28z" stroke="#5e5e5e" stroke-width="2" fill="#5e5e5e"/><path d="M1580 563.67c0-3.32 2.67-6.3 5.97-6.64L1764.03 538c3.3-.34 5.97 2.06 5.97 5.38v110.25c0 3.3-2.7 6-6 6h-178c-3.3 0-6-2.7-6-6z" stroke="#fff" stroke-width="3" fill="#ccc"/><use xlink:href="#p" transform="matrix(1,0,0,1,1585,562.75) translate(14.722222222222214 49.40277777777778)"/><use xlink:href="#q" transform="matrix(1,0,0,1,1585,562.75) translate(115.89506172839506 49.40277777777778)"/><path d="M1577.5 598.63H1260" stroke="#5e5e5e" stroke-width="2" fill="none"/><path d="M1578.5 599.63h-1.03v-2h1.03z" fill="#5e5e5e"/><path d="M1244.74 598.63L1259 594v9.27z" stroke="#5e5e5e" stroke-width="2" fill="#5e5e5e"/><path d="M1340 764.5c0-3.3 2.7-6 6-6h208c3.3 0 6 2.7 6 6v68c0 3.3-2.7 6-6 6h-208c-3.3 0-6-2.7-6-6z" stroke="#fff" stroke-width="3" fill="#b2d6ef"/><g><use xlink:href="#r" transform="matrix(1,0,0,1,1352,770.5) translate(8.24382716049385 33.6111111111111)"/><use xlink:href="#s" transform="matrix(1,0,0,1,1352,770.5) translate(69.15123456790124 33.6111111111111)"/></g><path d="M1450 756v-37.5c0-11.05-8.95-20-20-20H830c-11.05 0-20-8.95-20-20v-20" stroke="#5e5e5e" stroke-width="2" fill="none"/><path d="M1451 757h-2v-1.03h2z" fill="#5e5e5e"/><path d="M810 643.24l4.64 14.26h-9.28z" stroke="#5e5e5e" stroke-width="2" fill="#5e5e5e"/><defs><path fill="#fff" d="M24 0v-261h32V0H24" id="t"/><path fill="#fff" d="M100-194c62-1 85 37 85 99 1 63-27 99-86 99S16-35 15-95c0-66 28-99 85-99zM99-20c44 1 53-31 53-75 0-43-8-75-51-75s-53 32-53 75 10 74 51 75" id="u"/><path fill="#fff" d="M115-194c55 1 70 41 70 98S169 2 115 4C84 4 66-9 55-30l1 105H24l-1-265h31l2 30c10-21 28-34 59-34zm-8 174c40 0 45-34 45-75s-6-73-45-74c-42 0-51 32-51 76 0 43 10 73 51 73" id="v"/><g id="a"><use transform="matrix(0.0987654320987654,0,0,0.0987654320987654,0,0)" xlink:href="#t"/><use transform="matrix(0.0987654320987654,0,0,0.0987654320987654,7.8024691358024665,0)" xlink:href="#u"/><use transform="matrix(0.0987654320987654,0,0,0.0987654320987654,27.55555555555554,0)" xlink:href="#u"/><use transform="matrix(0.0987654320987654,0,0,0.0987654320987654,47.30864197530862,0)" xlink:href="#v"/></g><path fill="#fff" d="M212-179c-10-28-35-45-73-45-59 0-87 40-87 99 0 60 29 101 89 101 43 0 62-24 78-52l27 14C228-24 195 4 139 4 59 4 22-46 18-125c-6-104 99-153 187-111 19 9 31 26 39 46" id="w"/><path fill="#fff" d="M117-194c89-4 53 116 60 194h-32v-121c0-31-8-49-39-48C34-167 62-67 57 0H25l-1-190h30c1 10-1 24 2 32 11-22 29-35 61-36" id="x"/><path fill="#fff" d="M59-47c-2 24 18 29 38 22v24C64 9 27 4 27-40v-127H5v-23h24l9-43h21v43h35v23H59v120" id="y"/><path fill="#fff" d="M100-194c63 0 86 42 84 106H49c0 40 14 67 53 68 26 1 43-12 49-29l28 8c-11 28-37 45-77 45C44 4 14-33 15-96c1-61 26-98 85-98zm52 81c6-60-76-77-97-28-3 7-6 17-6 28h103" id="z"/><g id="b"><use transform="matrix(0.0864197530864197,0,0,0.0864197530864197,0,0)" xlink:href="#w"/><use transform="matrix(0.0864197530864197,0,0,0.0864197530864197,22.382716049382704,0)" xlink:href="#u"/><use transform="matrix(0.0864197530864197,0,0,0.0864197530864197,39.66666666666664,0)" xlink:href="#x"/><use transform="matrix(0.0864197530864197,0,0,0.0864197530864197,56.950617283950585,0)" xlink:href="#y"/><use transform="matrix(0.0864197530864197,0,0,0.0864197530864197,65.59259259259255,0)" xlink:href="#z"/><use transform="matrix(0.0864197530864197,0,0,0.0864197530864197,82.8765432098765,0)" xlink:href="#x"/><use transform="matrix(0.0864197530864197,0,0,0.0864197530864197,100.16049382716047,0)" xlink:href="#y"/></g><path fill="#fff" d="M30-248c118-7 216 8 213 122C240-48 200 0 122 0H30v-248zM63-27c89 8 146-16 146-99s-60-101-146-95v194" id="A"/><path fill="#fff" d="M96-169c-40 0-48 33-48 73s9 75 48 75c24 0 41-14 43-38l32 2c-6 37-31 61-74 61-59 0-76-41-82-99-10-93 101-131 147-64 4 7 5 14 7 22l-32 3c-4-21-16-35-41-35" id="B"/><path fill="#fff" d="M84 4C-5 8 30-112 23-190h32v120c0 31 7 50 39 49 72-2 45-101 50-169h31l1 190h-30c-1-10 1-25-2-33-11 22-28 36-60 37" id="C"/><path fill="#fff" d="M210-169c-67 3-38 105-44 169h-31v-121c0-29-5-50-35-48C34-165 62-65 56 0H25l-1-190h30c1 10-1 24 2 32 10-44 99-50 107 0 11-21 27-35 58-36 85-2 47 119 55 194h-31v-121c0-29-5-49-35-48" id="D"/><g id="c"><use transform="matrix(0.08024691358024688,0,0,0.08024691358024688,0,0)" xlink:href="#A"/><use transform="matrix(0.08024691358024688,0,0,0.08024691358024688,20.783950617283942,0)" xlink:href="#u"/><use transform="matrix(0.08024691358024688,0,0,0.08024691358024688,36.833333333333314,0)" xlink:href="#B"/><use transform="matrix(0.08024691358024688,0,0,0.08024691358024688,51.27777777777776,0)" xlink:href="#C"/><use transform="matrix(0.08024691358024688,0,0,0.08024691358024688,67.32716049382714,0)" xlink:href="#D"/><use transform="matrix(0.08024691358024688,0,0,0.08024691358024688,91.32098765432094,0)" xlink:href="#z"/><use transform="matrix(0.08024691358024688,0,0,0.08024691358024688,107.37037037037035,0)" xlink:href="#x"/><use transform="matrix(0.08024691358024688,0,0,0.08024691358024688,123.41975308641972,0)" xlink:href="#y"/></g><path fill="#fff" d="M114-163C36-179 61-72 57 0H25l-1-190h30c1 12-1 29 2 39 6-27 23-49 58-41v29" id="E"/><path fill="#fff" d="M135-143c-3-34-86-38-87 0 15 53 115 12 119 90S17 21 10-45l28-5c4 36 97 45 98 0-10-56-113-15-118-90-4-57 82-63 122-42 12 7 21 19 24 35" id="F"/><g id="d"><use transform="matrix(0.08024691358024688,0,0,0.08024691358024688,0,0)" xlink:href="#w"/><use transform="matrix(0.08024691358024688,0,0,0.08024691358024688,20.783950617283942,0)" xlink:href="#C"/><use transform="matrix(0.08024691358024688,0,0,0.08024691358024688,36.833333333333314,0)" xlink:href="#E"/><use transform="matrix(0.08024691358024688,0,0,0.08024691358024688,46.3827160493827,0)" xlink:href="#F"/><use transform="matrix(0.08024691358024688,0,0,0.08024691358024688,60.82716049382714,0)" xlink:href="#u"/><use transform="matrix(0.08024691358024688,0,0,0.08024691358024688,76.87654320987652,0)" xlink:href="#E"/></g><path fill="#fff" d="M232-93c-1 65-40 97-104 97C67 4 28-28 28-90v-158h33c8 89-33 224 67 224 102 0 64-133 71-224h33v155" id="G"/><path fill="#fff" d="M24-231v-30h32v30H24zM24 0v-190h32V0H24" id="H"/><path fill="#fff" d="M179-190L93 31C79 59 56 82 12 73V49c39 6 53-20 64-50L1-190h34L92-34l54-156h33" id="I"/><path fill="#fff" d="M33 0v-38h34V0H33" id="J"/><path fill="#fff" d="M106-169C34-169 62-67 57 0H25v-261h32l-1 103c12-21 28-36 61-36 89 0 53 116 60 194h-32v-121c2-32-8-49-39-48" id="K"/><g id="e"><use transform="matrix(0.08024691358024688,0,0,0.08024691358024688,0,0)" xlink:href="#G"/><use transform="matrix(0.08024691358024688,0,0,0.08024691358024688,20.783950617283942,0)" xlink:href="#y"/><use transform="matrix(0.08024691358024688,0,0,0.08024691358024688,28.808641975308632,0)" xlink:href="#H"/><use transform="matrix(0.08024691358024688,0,0,0.08024691358024688,35.14814814814814,0)" xlink:href="#t"/><use transform="matrix(0.08024691358024688,0,0,0.08024691358024688,41.487654320987644,0)" xlink:href="#H"/><use transform="matrix(0.08024691358024688,0,0,0.08024691358024688,47.82716049382715,0)" xlink:href="#y"/><use transform="matrix(0.08024691358024688,0,0,0.08024691358024688,55.85185185185184,0)" xlink:href="#I"/><use transform="matrix(0.08024691358024688,0,0,0.08024691358024688,68.12962962962962,0)" xlink:href="#J"/><use transform="matrix(0.08024691358024688,0,0,0.08024691358024688,76.1543209876543,0)" xlink:href="#K"/></g><path fill="#fff" d="M185-189c-5-48-123-54-124 2 14 75 158 14 163 119 3 78-121 87-175 55-17-10-28-26-33-46l33-7c5 56 141 63 141-1 0-78-155-14-162-118-5-82 145-84 179-34 5 7 8 16 11 25" id="L"/><path fill="#fff" d="M30 0v-248h33v221h125V0H30" id="M"/><path fill="#fff" d="M101-251c82-7 93 87 43 132L82-64C71-53 59-42 53-27h129V0H18c2-99 128-94 128-182 0-28-16-43-45-43s-46 15-49 41l-32-3c6-41 34-60 81-64" id="N"/><path fill="#fff" d="M101-251c68 0 85 55 85 127S166 4 100 4C33 4 14-52 14-124c0-73 17-127 87-127zm-1 229c47 0 54-49 54-102s-4-102-53-102c-51 0-55 48-55 102 0 53 5 102 54 102" id="O"/><g id="f"><use transform="matrix(0.09259259259259256,0,0,0.09259259259259256,0,0)" xlink:href="#L"/><use transform="matrix(0.09259259259259256,0,0,0.09259259259259256,22.222222222222214,0)" xlink:href="#A"/><use transform="matrix(0.09259259259259256,0,0,0.09259259259259256,46.20370370370369,0)" xlink:href="#M"/><use transform="matrix(0.09259259259259256,0,0,0.09259259259259256,64.7222222222222,0)" xlink:href="#N"/><use transform="matrix(0.09259259259259256,0,0,0.09259259259259256,83.2407407407407,0)" xlink:href="#J"/><use transform="matrix(0.09259259259259256,0,0,0.09259259259259256,92.49999999999996,0)" xlink:href="#O"/></g><path fill="#333" d="M33 0v-248h34V0H33" id="P"/><path fill="#333" d="M0 4l72-265h28L28 4H0" id="Q"/><path fill="#333" d="M140-251c81 0 123 46 123 126C263-46 219 4 140 4 59 4 17-45 17-125s42-126 123-126zm0 227c63 0 89-41 89-101s-29-99-89-99c-61 0-89 39-89 99S79-25 140-24" id="R"/><g id="g"><use transform="matrix(0.06172839506172839,0,0,0.06172839506172839,0,0)" xlink:href="#P"/><use transform="matrix(0.06172839506172839,0,0,0.06172839506172839,6.172839506172839,0)" xlink:href="#Q"/><use transform="matrix(0.06172839506172839,0,0,0.06172839506172839,12.345679012345679,0)" xlink:href="#R"/></g><path fill="#333" d="M63-220v92h138v28H63V0H30v-248h175v28H63" id="S"/><path fill="#333" d="M24-231v-30h32v30H24zM24 0v-190h32V0H24" id="T"/><path fill="#333" d="M24 0v-261h32V0H24" id="U"/><path fill="#333" d="M100-194c63 0 86 42 84 106H49c0 40 14 67 53 68 26 1 43-12 49-29l28 8c-11 28-37 45-77 45C44 4 14-33 15-96c1-61 26-98 85-98zm52 81c6-60-76-77-97-28-3 7-6 17-6 28h103" id="V"/><path fill="#333" d="M135-143c-3-34-86-38-87 0 15 53 115 12 119 90S17 21 10-45l28-5c4 36 97 45 98 0-10-56-113-15-118-90-4-57 82-63 122-42 12 7 21 19 24 35" id="W"/><g id="h"><use transform="matrix(0.06172839506172839,0,0,0.06172839506172839,0,0)" xlink:href="#S"/><use transform="matrix(0.06172839506172839,0,0,0.06172839506172839,13.518518518518517,0)" xlink:href="#T"/><use transform="matrix(0.06172839506172839,0,0,0.06172839506172839,18.39506172839506,0)" xlink:href="#U"/><use transform="matrix(0.06172839506172839,0,0,0.06172839506172839,23.2716049382716,0)" xlink:href="#V"/><use transform="matrix(0.06172839506172839,0,0,0.06172839506172839,35.61728395061728,0)" xlink:href="#W"/></g><path fill="#333" d="M87 75C49 33 22-17 22-94c0-76 28-126 65-167h31c-38 41-64 92-64 168S80 34 118 75H87" id="X"/><path fill="#333" d="M117-194c89-4 53 116 60 194h-32v-121c0-31-8-49-39-48C34-167 62-67 57 0H25l-1-190h30c1 10-1 24 2 32 11-22 29-35 61-36" id="Y"/><path fill="#333" d="M115-194c55 1 70 41 70 98S169 2 115 4C84 4 66-9 55-30l1 105H24l-1-265h31l2 30c10-21 28-34 59-34zm-8 174c40 0 45-34 45-75s-6-73-45-74c-42 0-51 32-51 76 0 43 10 73 51 73" id="Z"/><path fill="#333" d="M84 4C-5 8 30-112 23-190h32v120c0 31 7 50 39 49 72-2 45-101 50-169h31l1 190h-30c-1-10 1-25-2-33-11 22-28 36-60 37" id="aa"/><path fill="#333" d="M59-47c-2 24 18 29 38 22v24C64 9 27 4 27-40v-127H5v-23h24l9-43h21v43h35v23H59v120" id="ab"/><path fill="#333" d="M33 0v-38h34V0H33" id="ac"/><path fill="#333" d="M141 0L90-78 38 0H4l68-98-65-92h35l48 74 47-74h35l-64 92 68 98h-35" id="ad"/><path fill="#333" d="M68-38c1 34 0 65-14 84H32c9-13 17-26 17-46H33v-38h35" id="ae"/><g id="i"><use transform="matrix(0.06172839506172839,0,0,0.06172839506172839,0,0)" xlink:href="#X"/><use transform="matrix(0.06172839506172839,0,0,0.06172839506172839,7.345679012345679,0)" xlink:href="#P"/><use transform="matrix(0.06172839506172839,0,0,0.06172839506172839,13.518518518518519,0)" xlink:href="#Y"/><use transform="matrix(0.06172839506172839,0,0,0.06172839506172839,25.864197530864196,0)" xlink:href="#Z"/><use transform="matrix(0.06172839506172839,0,0,0.06172839506172839,38.20987654320987,0)" xlink:href="#aa"/><use transform="matrix(0.06172839506172839,0,0,0.06172839506172839,50.55555555555555,0)" xlink:href="#ab"/><use transform="matrix(0.06172839506172839,0,0,0.06172839506172839,56.72839506172839,0)" xlink:href="#ac"/><use transform="matrix(0.06172839506172839,0,0,0.06172839506172839,62.901234567901234,0)" xlink:href="#ab"/><use transform="matrix(0.06172839506172839,0,0,0.06172839506172839,69.07407407407408,0)" xlink:href="#ad"/><use transform="matrix(0.06172839506172839,0,0,0.06172839506172839,80.18518518518519,0)" xlink:href="#ab"/><use transform="matrix(0.06172839506172839,0,0,0.06172839506172839,86.35802469135803,0)" xlink:href="#ae"/></g><g id="j"><use transform="matrix(0.06172839506172839,0,0,0.06172839506172839,0,0)" xlink:href="#R"/><use transform="matrix(0.06172839506172839,0,0,0.06172839506172839,17.28395061728395,0)" xlink:href="#aa"/><use transform="matrix(0.06172839506172839,0,0,0.06172839506172839,29.629629629629626,0)" xlink:href="#ab"/><use transform="matrix(0.06172839506172839,0,0,0.06172839506172839,35.80246913580247,0)" xlink:href="#Z"/><use transform="matrix(0.06172839506172839,0,0,0.06172839506172839,48.148148148148145,0)" xlink:href="#aa"/><use transform="matrix(0.06172839506172839,0,0,0.06172839506172839,60.49382716049382,0)" xlink:href="#ab"/><use transform="matrix(0.06172839506172839,0,0,0.06172839506172839,66.66666666666666,0)" xlink:href="#ac"/><use transform="matrix(0.06172839506172839,0,0,0.06172839506172839,72.83950617283949,0)" xlink:href="#ab"/><use transform="matrix(0.06172839506172839,0,0,0.06172839506172839,79.01234567901233,0)" xlink:href="#ad"/><use transform="matrix(0.06172839506172839,0,0,0.06172839506172839,90.12345679012344,0)" xlink:href="#ab"/></g><path fill="#333" d="M33-261c38 41 65 92 65 168S71 34 33 75H2C39 34 66-17 66-93S39-220 2-261h31" id="af"/><use transform="matrix(0.06172839506172839,0,0,0.06172839506172839,0,0)" xlink:href="#af" id="k"/><path fill="#333" d="M240 0l2-218c-23 76-54 145-80 218h-23L58-218 59 0H30v-248h44l77 211c21-75 51-140 76-211h43V0h-30" id="ag"/><path fill="#333" d="M141-36C126-15 110 5 73 4 37 3 15-17 15-53c-1-64 63-63 125-63 3-35-9-54-41-54-24 1-41 7-42 31l-33-3c5-37 33-52 76-52 45 0 72 20 72 64v82c-1 20 7 32 28 27v20c-31 9-61-2-59-35zM48-53c0 20 12 33 32 33 41-3 63-29 60-74-43 2-92-5-92 41" id="ah"/><g id="l"><use transform="matrix(0.06172839506172839,0,0,0.06172839506172839,0,0)" xlink:href="#ag"/><use transform="matrix(0.06172839506172839,0,0,0.06172839506172839,18.456790123456788,0)" xlink:href="#ah"/><use transform="matrix(0.06172839506172839,0,0,0.06172839506172839,30.80246913580247,0)" xlink:href="#Y"/><use transform="matrix(0.06172839506172839,0,0,0.06172839506172839,43.148148148148145,0)" xlink:href="#aa"/><use transform="matrix(0.06172839506172839,0,0,0.06172839506172839,55.49382716049382,0)" xlink:href="#ah"/><use transform="matrix(0.06172839506172839,0,0,0.06172839506172839,67.8395061728395,0)" xlink:href="#U"/></g><path fill="#333" d="M212-179c-10-28-35-45-73-45-59 0-87 40-87 99 0 60 29 101 89 101 43 0 62-24 78-52l27 14C228-24 195 4 139 4 59 4 22-46 18-125c-6-104 99-153 187-111 19 9 31 26 39 46" id="ai"/><path fill="#333" d="M114-163C36-179 61-72 57 0H25l-1-190h30c1 12-1 29 2 39 6-27 23-49 58-41v29" id="aj"/><path fill="#333" d="M100-194c62-1 85 37 85 99 1 63-27 99-86 99S16-35 15-95c0-66 28-99 85-99zM99-20c44 1 53-31 53-75 0-43-8-75-51-75s-53 32-53 75 10 74 51 75" id="ak"/><g id="m"><use transform="matrix(0.06172839506172839,0,0,0.06172839506172839,0,0)" xlink:href="#ai"/><use transform="matrix(0.06172839506172839,0,0,0.06172839506172839,15.987654320987653,0)" xlink:href="#aa"/><use transform="matrix(0.06172839506172839,0,0,0.06172839506172839,28.333333333333332,0)" xlink:href="#aj"/><use transform="matrix(0.06172839506172839,0,0,0.06172839506172839,35.67901234567901,0)" xlink:href="#W"/><use transform="matrix(0.06172839506172839,0,0,0.06172839506172839,46.79012345679013,0)" xlink:href="#ak"/><use transform="matrix(0.06172839506172839,0,0,0.06172839506172839,59.135802469135804,0)" xlink:href="#aj"/></g><path fill="#333" d="M108 0H70L1-190h34L89-25l56-165h34" id="al"/><path fill="#333" d="M210-169c-67 3-38 105-44 169h-31v-121c0-29-5-50-35-48C34-165 62-65 56 0H25l-1-190h30c1 10-1 24 2 32 10-44 99-50 107 0 11-21 27-35 58-36 85-2 47 119 55 194h-31v-121c0-29-5-49-35-48" id="am"/><g id="n"><use transform="matrix(0.06172839506172839,0,0,0.06172839506172839,0,0)" xlink:href="#ag"/><use transform="matrix(0.06172839506172839,0,0,0.06172839506172839,18.456790123456788,0)" xlink:href="#ak"/><use transform="matrix(0.06172839506172839,0,0,0.06172839506172839,30.80246913580247,0)" xlink:href="#al"/><use transform="matrix(0.06172839506172839,0,0,0.06172839506172839,41.91358024691358,0)" xlink:href="#V"/><use transform="matrix(0.06172839506172839,0,0,0.06172839506172839,54.25925925925926,0)" xlink:href="#am"/><use transform="matrix(0.06172839506172839,0,0,0.06172839506172839,72.71604938271605,0)" xlink:href="#V"/><use transform="matrix(0.06172839506172839,0,0,0.06172839506172839,85.06172839506173,0)" xlink:href="#Y"/><use transform="matrix(0.06172839506172839,0,0,0.06172839506172839,97.40740740740742,0)" xlink:href="#ab"/><use transform="matrix(0.06172839506172839,0,0,0.06172839506172839,103.58024691358025,0)" xlink:href="#W"/></g><path fill="#fff" d="M33 0v-248h34V0H33" id="an"/><path fill="#fff" d="M197 0v-115H63V0H30v-248h33v105h134v-105h34V0h-34" id="ao"/><path fill="#fff" d="M141-36C126-15 110 5 73 4 37 3 15-17 15-53c-1-64 63-63 125-63 3-35-9-54-41-54-24 1-41 7-42 31l-33-3c5-37 33-52 76-52 45 0 72 20 72 64v82c-1 20 7 32 28 27v20c-31 9-61-2-59-35zM48-53c0 20 12 33 32 33 41-3 63-29 60-74-43 2-92-5-92 41" id="ap"/><path fill="#fff" d="M85-194c31 0 48 13 60 33l-1-100h32l1 261h-30c-2-10 0-23-3-31C134-8 116 4 85 4 32 4 16-35 15-94c0-66 23-100 70-100zm9 24c-40 0-46 34-46 75 0 40 6 74 45 74 42 0 51-32 51-76 0-42-9-74-50-73" id="aq"/><g id="o"><use transform="matrix(0.0864197530864197,0,0,0.0864197530864197,0,0)" xlink:href="#an"/><use transform="matrix(0.0864197530864197,0,0,0.0864197530864197,8.641975308641971,0)" xlink:href="#x"/><use transform="matrix(0.0864197530864197,0,0,0.0864197530864197,25.925925925925913,0)" xlink:href="#v"/><use transform="matrix(0.0864197530864197,0,0,0.0864197530864197,43.20987654320986,0)" xlink:href="#C"/><use transform="matrix(0.0864197530864197,0,0,0.0864197530864197,60.4938271604938,0)" xlink:href="#y"/><use transform="matrix(0.0864197530864197,0,0,0.0864197530864197,69.13580246913577,0)" xlink:href="#ao"/><use transform="matrix(0.0864197530864197,0,0,0.0864197530864197,91.51851851851848,0)" xlink:href="#ap"/><use transform="matrix(0.0864197530864197,0,0,0.0864197530864197,108.80246913580243,0)" xlink:href="#x"/><use transform="matrix(0.0864197530864197,0,0,0.0864197530864197,126.08641975308637,0)" xlink:href="#aq"/><use transform="matrix(0.0864197530864197,0,0,0.0864197530864197,143.37037037037032,0)" xlink:href="#t"/><use transform="matrix(0.0864197530864197,0,0,0.0864197530864197,150.1975308641975,0)" xlink:href="#z"/><use transform="matrix(0.0864197530864197,0,0,0.0864197530864197,167.48148148148144,0)" xlink:href="#E"/></g><path fill="#333" d="M194 0L95-120 63-95V0H30v-248h33v124l119-124h40L117-140 236 0h-42" id="ar"/><path fill="#333" d="M179-190L93 31C79 59 56 82 12 73V49c39 6 53-20 64-50L1-190h34L92-34l54-156h33" id="as"/><path fill="#333" d="M115-194c53 0 69 39 70 98 0 66-23 100-70 100C84 3 66-7 56-30L54 0H23l1-261h32v101c10-23 28-34 59-34zm-8 174c40 0 45-34 45-75 0-40-5-75-45-74-42 0-51 32-51 76 0 43 10 73 51 73" id="at"/><path fill="#333" d="M85-194c31 0 48 13 60 33l-1-100h32l1 261h-30c-2-10 0-23-3-31C134-8 116 4 85 4 32 4 16-35 15-94c0-66 23-100 70-100zm9 24c-40 0-46 34-46 75 0 40 6 74 45 74 42 0 51-32 51-76 0-42-9-74-50-73" id="au"/><g id="p"><use transform="matrix(0.06172839506172839,0,0,0.06172839506172839,0,0)" xlink:href="#ar"/><use transform="matrix(0.06172839506172839,0,0,0.06172839506172839,14.814814814814813,0)" xlink:href="#V"/><use transform="matrix(0.06172839506172839,0,0,0.06172839506172839,27.160493827160494,0)" xlink:href="#as"/><use transform="matrix(0.06172839506172839,0,0,0.06172839506172839,38.27160493827161,0)" xlink:href="#at"/><use transform="matrix(0.06172839506172839,0,0,0.06172839506172839,50.617283950617285,0)" xlink:href="#ak"/><use transform="matrix(0.06172839506172839,0,0,0.06172839506172839,62.96296296296296,0)" xlink:href="#ah"/><use transform="matrix(0.06172839506172839,0,0,0.06172839506172839,75.30864197530865,0)" xlink:href="#aj"/><use transform="matrix(0.06172839506172839,0,0,0.06172839506172839,82.65432098765433,0)" xlink:href="#au"/></g><g id="q"><use transform="matrix(0.06172839506172839,0,0,0.06172839506172839,0,0)" xlink:href="#P"/><use transform="matrix(0.06172839506172839,0,0,0.06172839506172839,6.172839506172839,0)" xlink:href="#Y"/><use transform="matrix(0.06172839506172839,0,0,0.06172839506172839,18.51851851851852,0)" xlink:href="#Z"/><use transform="matrix(0.06172839506172839,0,0,0.06172839506172839,30.864197530864196,0)" xlink:href="#aa"/><use transform="matrix(0.06172839506172839,0,0,0.06172839506172839,43.20987654320987,0)" xlink:href="#ab"/></g><path fill="#fff" d="M127-220V0H93v-220H8v-28h204v28h-85" id="av"/><path fill="#fff" d="M141 0L90-78 38 0H4l68-98-65-92h35l48 74 47-74h35l-64 92 68 98h-35" id="aw"/><g id="r"><use transform="matrix(0.08024691358024688,0,0,0.08024691358024688,0,0)" xlink:href="#av"/><use transform="matrix(0.08024691358024688,0,0,0.08024691358024688,14.364197530864192,0)" xlink:href="#z"/><use transform="matrix(0.08024691358024688,0,0,0.08024691358024688,30.41358024691357,0)" xlink:href="#aw"/><use transform="matrix(0.08024691358024688,0,0,0.08024691358024688,44.858024691358004,0)" xlink:href="#y"/></g><g id="s"><use transform="matrix(0.08024691358024688,0,0,0.08024691358024688,0,0)" xlink:href="#L"/><use transform="matrix(0.08024691358024688,0,0,0.08024691358024688,19.259259259259252,0)" xlink:href="#z"/><use transform="matrix(0.08024691358024688,0,0,0.08024691358024688,35.30864197530863,0)" xlink:href="#t"/><use transform="matrix(0.08024691358024688,0,0,0.08024691358024688,41.64814814814814,0)" xlink:href="#z"/><use transform="matrix(0.08024691358024688,0,0,0.08024691358024688,57.69753086419752,0)" xlink:href="#B"/><use transform="matrix(0.08024691358024688,0,0,0.08024691358024688,72.14197530864196,0)" xlink:href="#y"/><use transform="matrix(0.08024691358024688,0,0,0.08024691358024688,80.16666666666664,0)" xlink:href="#H"/><use transform="matrix(0.08024691358024688,0,0,0.08024691358024688,86.50617283950615,0)" xlink:href="#u"/><use transform="matrix(0.08024691358024688,0,0,0.08024691358024688,102.55555555555553,0)" xlink:href="#x"/></g></defs></g></svg>